<svg xmlns="http://www.w3.org/2000/svg" xmlns:xlink="http://www.w3.org/1999/xlink" width="200" zoomAndPan="magnify" viewBox="0 0 150 74.999997" height="100" preserveAspectRatio="xMidYMid meet" version="1.0"><defs><g/><clipPath id="7588af4d91"><path d="M 86 10.332031 L 130 10.332031 L 130 50 L 86 50 Z M 86 10.332031 " clip-rule="nonzero"/></clipPath><clipPath id="f76a7652da"><path d="M 113.386719 51.460938 L 126.523438 51.460938 L 126.523438 64.300781 L 113.386719 64.300781 Z M 113.386719 51.460938 " clip-rule="nonzero"/></clipPath></defs><rect x="-15" width="180" fill="#ffffff" y="-7.5" height="89.999996" fill-opacity="1"/><rect x="-15" width="180" fill="#ffffff" y="-7.5" height="89.999996" fill-opacity="1"/><path fill="#1e1e1e" d="M 108 35.890625 C 107.679688 35.890625 107.421875 35.632812 107.421875 35.316406 L 107.421875 31.203125 C 107.421875 30.886719 107.679688 30.632812 108 30.632812 C 108.320312 30.632812 108.582031 30.886719 108.582031 31.203125 L 108.582031 35.316406 C 108.582031 35.632812 108.320312 35.890625 108 35.890625 " fill-opacity="1" fill-rule="nonzero"/><path fill="#1e1e1e" d="M 108 23.183594 C 107.679688 23.183594 107.421875 22.925781 107.421875 22.609375 L 107.421875 13.519531 C 107.421875 13.203125 107.679688 12.945312 108 12.945312 C 108.320312 12.945312 108.582031 13.203125 108.582031 13.519531 L 108.582031 22.609375 C 108.582031 22.925781 108.320312 23.183594 108 23.183594 " fill-opacity="1" fill-rule="nonzero"/><path fill="#1e1e1e" d="M 108 31.777344 C 107.679688 31.777344 107.421875 31.519531 107.421875 31.203125 L 107.421875 25.203125 C 107.421875 24.886719 107.679688 24.628906 108 24.628906 C 108.320312 24.628906 108.582031 24.886719 108.582031 25.203125 L 108.582031 31.203125 C 108.582031 31.519531 108.320312 31.777344 108 31.777344 " fill-opacity="1" fill-rule="nonzero"/><path fill="#1e1e1e" d="M 115.972656 20.925781 C 115.753906 20.925781 115.546875 20.808594 115.449219 20.601562 C 114.285156 18.199219 112.734375 16.011719 110.839844 14.105469 C 110.617188 13.878906 110.621094 13.515625 110.847656 13.292969 C 111.074219 13.070312 111.441406 13.074219 111.667969 13.300781 C 113.652344 15.300781 115.277344 17.589844 116.492188 20.105469 C 116.632812 20.390625 116.511719 20.734375 116.222656 20.871094 C 116.140625 20.910156 116.054688 20.925781 115.972656 20.925781 " fill-opacity="1" fill-rule="nonzero"/><path fill="#1e1e1e" d="M 118 27.050781 C 117.726562 27.050781 117.484375 26.859375 117.429688 26.582031 C 117.1875 25.3125 116.835938 24.054688 116.398438 22.84375 C 116.289062 22.546875 116.445312 22.21875 116.746094 22.113281 C 117.046875 22.003906 117.378906 22.160156 117.488281 22.457031 C 117.949219 23.722656 118.3125 25.039062 118.570312 26.371094 C 118.628906 26.679688 118.421875 26.980469 118.109375 27.039062 C 118.070312 27.046875 118.035156 27.050781 118 27.050781 " fill-opacity="1" fill-rule="nonzero"/><path fill="#1e1e1e" d="M 116.898438 40.449219 C 116.832031 40.449219 116.765625 40.4375 116.699219 40.414062 C 116.398438 40.304688 116.246094 39.972656 116.355469 39.675781 C 117.359375 36.964844 117.867188 34.113281 117.867188 31.203125 C 117.867188 30.601562 117.847656 29.992188 117.800781 29.390625 C 117.777344 29.074219 118.019531 28.800781 118.335938 28.777344 C 118.65625 28.753906 118.933594 28.992188 118.957031 29.308594 C 119.003906 29.933594 119.027344 30.574219 119.027344 31.203125 C 119.027344 34.246094 118.496094 37.230469 117.445312 40.070312 C 117.359375 40.304688 117.136719 40.449219 116.898438 40.449219 " fill-opacity="1" fill-rule="nonzero"/><path fill="#1e1e1e" d="M 100.03125 20.925781 C 99.945312 20.925781 99.863281 20.910156 99.78125 20.871094 C 99.492188 20.734375 99.371094 20.390625 99.507812 20.105469 C 100.726562 17.589844 102.351562 15.300781 104.335938 13.300781 C 104.558594 13.074219 104.925781 13.070312 105.15625 13.292969 C 105.382812 13.515625 105.386719 13.878906 105.164062 14.105469 C 103.269531 16.011719 101.71875 18.199219 100.554688 20.601562 C 100.453125 20.808594 100.246094 20.925781 100.03125 20.925781 " fill-opacity="1" fill-rule="nonzero"/><path fill="#1e1e1e" d="M 98.003906 27.042969 C 97.96875 27.042969 97.933594 27.039062 97.894531 27.03125 C 97.582031 26.972656 97.375 26.671875 97.433594 26.359375 C 97.691406 25.035156 98.054688 23.722656 98.515625 22.457031 C 98.625 22.160156 98.957031 22.003906 99.257812 22.113281 C 99.558594 22.21875 99.714844 22.546875 99.605469 22.84375 C 99.164062 24.054688 98.816406 25.308594 98.574219 26.574219 C 98.523438 26.851562 98.277344 27.042969 98.003906 27.042969 " fill-opacity="1" fill-rule="nonzero"/><path fill="#1e1e1e" d="M 99.105469 40.449219 C 98.867188 40.449219 98.644531 40.304688 98.558594 40.074219 C 97.507812 37.230469 96.972656 34.25 96.972656 31.203125 C 96.972656 30.574219 96.996094 29.933594 97.042969 29.308594 C 97.066406 28.992188 97.347656 28.753906 97.664062 28.777344 C 97.984375 28.800781 98.222656 29.074219 98.199219 29.390625 C 98.15625 29.992188 98.132812 30.601562 98.132812 31.203125 C 98.132812 34.113281 98.644531 36.964844 99.648438 39.679688 C 99.757812 39.976562 99.601562 40.304688 99.300781 40.414062 C 99.234375 40.4375 99.167969 40.449219 99.105469 40.449219 " fill-opacity="1" fill-rule="nonzero"/><path fill="#1e1e1e" d="M 108 18.832031 C 104.402344 18.832031 100.886719 18.167969 97.542969 16.863281 C 97.246094 16.746094 97.097656 16.414062 97.21875 16.117188 C 97.335938 15.824219 97.671875 15.679688 97.96875 15.796875 C 101.175781 17.046875 104.550781 17.683594 108 17.683594 C 111.449219 17.683594 114.824219 17.046875 118.03125 15.796875 C 118.328125 15.679688 118.667969 15.824219 118.785156 16.117188 C 118.902344 16.414062 118.753906 16.746094 118.457031 16.863281 C 115.117188 18.167969 111.597656 18.832031 108 18.832031 " fill-opacity="1" fill-rule="nonzero"/><g clip-path="url(#7588af4d91)"><path fill="#1e1e1e" d="M 97.40625 49.140625 C 97.304688 49.140625 97.199219 49.113281 97.105469 49.054688 C 94.054688 47.234375 91.5 44.65625 89.71875 41.601562 C 87.882812 38.453125 86.914062 34.859375 86.914062 31.203125 C 86.914062 19.710938 96.375 10.359375 108 10.359375 C 119.628906 10.359375 129.089844 19.710938 129.089844 31.203125 C 129.089844 34.859375 128.117188 38.453125 126.285156 41.601562 C 124.503906 44.652344 121.949219 47.230469 118.898438 49.054688 C 118.625 49.21875 118.269531 49.132812 118.101562 48.863281 C 117.9375 48.589844 118.023438 48.238281 118.296875 48.074219 C 124.328125 44.46875 127.929688 38.164062 127.929688 31.203125 C 127.929688 20.339844 118.988281 11.503906 108 11.503906 C 97.011719 11.503906 88.074219 20.339844 88.074219 31.203125 C 88.074219 38.164062 91.675781 44.472656 97.707031 48.074219 C 97.980469 48.238281 98.066406 48.589844 97.902344 48.863281 C 97.792969 49.042969 97.601562 49.140625 97.40625 49.140625 " fill-opacity="1" fill-rule="nonzero"/></g><path fill="#1e1e1e" d="M 122.097656 31.777344 L 93.90625 31.777344 C 93.585938 31.777344 93.324219 31.519531 93.324219 31.203125 C 93.324219 30.886719 93.585938 30.632812 93.90625 30.632812 L 122.097656 30.632812 C 122.417969 30.632812 122.679688 30.886719 122.679688 31.203125 C 122.679688 31.519531 122.417969 31.777344 122.097656 31.777344 " fill-opacity="1" fill-rule="nonzero"/><path fill="#1e1e1e" d="M 87.804688 44.304688 C 83.335938 44.304688 80.554688 43.285156 79.835938 41.339844 C 78.753906 38.390625 82.671875 34.835938 86.148438 32.371094 C 90.875 29.027344 97.570312 25.710938 104.996094 23.039062 C 112.417969 20.367188 119.703125 18.652344 125.5 18.214844 C 129.765625 17.890625 135.078125 18.121094 136.164062 21.070312 C 137.074219 23.542969 134.464844 26.980469 128.816406 30.75 C 128.550781 30.925781 128.191406 30.859375 128.011719 30.59375 C 127.832031 30.332031 127.902344 29.976562 128.167969 29.800781 C 133.183594 26.453125 135.765625 23.335938 135.074219 21.464844 C 134.441406 19.742188 130.894531 18.953125 125.589844 19.355469 C 119.894531 19.789062 112.71875 21.480469 105.390625 24.117188 C 98.0625 26.753906 91.46875 30.015625 86.824219 33.304688 C 82.496094 36.367188 80.292969 39.222656 80.929688 40.945312 C 81.617188 42.820312 85.621094 43.566406 91.640625 42.941406 C 91.957031 42.910156 92.242188 43.136719 92.277344 43.453125 C 92.3125 43.765625 92.078125 44.050781 91.761719 44.082031 C 90.324219 44.230469 89.003906 44.304688 87.804688 44.304688 " fill-opacity="1" fill-rule="nonzero"/><path fill="#1e1e1e" d="M 128.199219 44.304688 C 127 44.304688 125.679688 44.230469 124.242188 44.082031 C 123.921875 44.050781 123.691406 43.765625 123.726562 43.453125 C 123.757812 43.136719 124.042969 42.910156 124.363281 42.941406 C 130.378906 43.566406 134.382812 42.820312 135.074219 40.945312 C 135.707031 39.222656 133.503906 36.367188 129.179688 33.304688 C 124.535156 30.015625 117.941406 26.753906 110.609375 24.117188 C 103.28125 21.480469 96.109375 19.789062 90.414062 19.355469 C 85.109375 18.953125 81.5625 19.742188 80.929688 21.464844 C 80.238281 23.335938 82.820312 26.453125 87.835938 29.800781 C 88.101562 29.976562 88.171875 30.332031 87.992188 30.59375 C 87.8125 30.859375 87.453125 30.925781 87.1875 30.75 C 81.539062 26.980469 78.929688 23.542969 79.835938 21.070312 C 80.921875 18.121094 86.234375 17.890625 90.503906 18.214844 C 96.300781 18.652344 103.582031 20.367188 111.007812 23.039062 C 118.433594 25.710938 125.125 29.027344 129.851562 32.371094 C 133.332031 34.835938 137.25 38.390625 136.164062 41.339844 C 135.445312 43.285156 132.664062 44.304688 128.199219 44.304688 " fill-opacity="1" fill-rule="nonzero"/><g clip-path="url(#f76a7652da)"><path fill="#1e1e1e" d="M 123.703125 64.300781 C 123 64.300781 122.300781 64.039062 121.769531 63.511719 L 113.617188 55.453125 C 113.390625 55.226562 113.390625 54.867188 113.617188 54.640625 C 113.84375 54.417969 114.210938 54.417969 114.4375 54.640625 L 122.589844 62.699219 C 123.203125 63.304688 124.199219 63.304688 124.816406 62.699219 C 125.113281 62.40625 125.273438 62.015625 125.273438 61.601562 C 125.273438 61.183594 125.113281 60.792969 124.816406 60.5 L 116.664062 52.441406 C 116.4375 52.21875 116.4375 51.855469 116.664062 51.628906 C 116.886719 51.40625 117.257812 51.40625 117.484375 51.628906 L 125.632812 59.6875 C 126.152344 60.199219 126.433594 60.878906 126.433594 61.601562 C 126.433594 62.320312 126.152344 63 125.632812 63.511719 C 125.101562 64.039062 124.402344 64.300781 123.703125 64.300781 " fill-opacity="1" fill-rule="nonzero"/></g><path fill="#1e1e1e" d="M 108 60.691406 C 101.632812 60.691406 95.996094 56.675781 93.976562 50.695312 C 93.875 50.394531 94.039062 50.070312 94.34375 49.96875 C 94.644531 49.871094 94.976562 50.03125 95.074219 50.332031 C 96.9375 55.84375 102.132812 59.546875 108 59.546875 C 108.324219 59.546875 108.582031 59.800781 108.582031 60.117188 C 108.582031 60.4375 108.324219 60.691406 108 60.691406 " fill-opacity="1" fill-rule="nonzero"/><path fill="#1e1e1e" d="M 108 35.890625 C 102.316406 35.890625 97.695312 40.460938 97.695312 46.078125 C 97.695312 51.699219 102.316406 56.269531 108 56.269531 C 113.6875 56.269531 118.308594 51.699219 118.308594 46.078125 C 118.308594 40.460938 113.6875 35.890625 108 35.890625 Z M 108 57.417969 C 101.679688 57.417969 96.535156 52.332031 96.535156 46.078125 C 96.535156 39.828125 101.679688 34.742188 108 34.742188 C 114.324219 34.742188 119.46875 39.828125 119.46875 46.078125 C 119.46875 52.332031 114.324219 57.417969 108 57.417969 " fill-opacity="1" fill-rule="nonzero"/><path fill="#1e1e1e" d="M 100 44.71875 C 99.953125 44.71875 99.90625 44.710938 99.863281 44.699219 C 99.550781 44.625 99.359375 44.316406 99.4375 44.007812 C 100.019531 41.648438 101.597656 39.617188 103.761719 38.441406 C 104.042969 38.285156 104.394531 38.386719 104.546875 38.664062 C 104.703125 38.941406 104.601562 39.289062 104.320312 39.445312 C 102.441406 40.46875 101.070312 42.230469 100.5625 44.28125 C 100.496094 44.542969 100.261719 44.71875 100 44.71875 " fill-opacity="1" fill-rule="nonzero"/><path fill="#1e1e1e" d="M 108 49.453125 C 107.683594 49.453125 107.421875 49.195312 107.421875 48.878906 L 107.421875 48.605469 C 107.421875 47.296875 108.066406 46.113281 109.144531 45.4375 C 109.804688 45.023438 110.183594 44.289062 110.136719 43.515625 C 110.070312 42.472656 109.195312 41.609375 108.140625 41.542969 C 107.539062 41.507812 106.972656 41.707031 106.539062 42.113281 C 106.105469 42.515625 105.863281 43.0625 105.863281 43.652344 C 105.863281 43.96875 105.605469 44.226562 105.285156 44.226562 C 104.964844 44.226562 104.707031 43.96875 104.707031 43.652344 C 104.707031 42.757812 105.085938 41.890625 105.746094 41.277344 C 106.414062 40.652344 107.292969 40.34375 108.210938 40.398438 C 109.863281 40.5 111.191406 41.808594 111.292969 43.445312 C 111.367188 44.632812 110.78125 45.769531 109.765625 46.40625 C 109.035156 46.863281 108.582031 47.707031 108.582031 48.605469 L 108.582031 48.878906 C 108.582031 49.195312 108.324219 49.453125 108 49.453125 " fill-opacity="1" fill-rule="nonzero"/><path fill="#1e1e1e" d="M 108 51.765625 C 107.683594 51.765625 107.421875 51.511719 107.421875 51.195312 L 107.421875 50.90625 C 107.421875 50.589844 107.683594 50.335938 108 50.335938 C 108.324219 50.335938 108.582031 50.589844 108.582031 50.90625 L 108.582031 51.195312 C 108.582031 51.511719 108.324219 51.765625 108 51.765625 " fill-opacity="1" fill-rule="nonzero"/><path stroke-linecap="butt" transform="matrix(0.453835, 0, 0, 0.453835, 15.97814, 4.38977)" fill="none" stroke-linejoin="miter" d="M 35.690595 11.879823 C 40.054447 11.879823 44.315013 12.516756 48.480899 13.790622 C 52.664 15.064488 55.7712 16.32114 57.793893 17.560577 L 60.728949 19.514412 L 53.283718 34.172479 C 52.689821 33.785155 51.872137 33.285937 50.822058 32.666219 C 49.789194 32.0465 47.835359 31.220209 44.977767 30.187344 C 42.111569 29.137266 39.434729 28.612226 36.955854 28.612226 C 33.900297 28.612226 31.541923 29.266374 29.872126 30.566061 C 28.210936 31.874356 27.384644 33.630226 27.384644 35.842277 C 27.384644 36.952606 27.780575 37.98547 28.555224 38.923656 C 29.338479 39.861841 30.672596 40.868883 32.56618 41.953391 C 34.459765 43.020684 36.120955 43.872797 37.549751 44.526945 C 38.987154 45.181092 41.199205 46.162313 44.185905 47.462001 C 49.40187 49.691267 53.851794 52.712395 57.52707 56.533993 C 61.21956 60.338377 63.061501 64.650586 63.061501 69.47062 C 63.061501 74.092688 62.226602 78.138073 60.556805 81.589562 C 58.904222 85.04105 56.623313 87.743712 53.705471 89.706154 C 50.813451 91.659989 47.611572 93.105999 44.091225 94.044185 C 40.579487 94.98237 36.766496 95.455766 32.66086 95.455766 C 29.140514 95.455766 25.689025 95.094263 22.306394 94.379865 C 18.915156 93.665468 16.074779 92.778926 13.785263 91.711632 C 11.512962 90.627125 9.45584 89.568439 7.622506 88.535575 C 5.814993 87.485496 4.480877 86.598954 3.620156 85.884556 L 2.354897 84.808656 L 11.538783 69.367333 C 12.322039 70.021481 13.397939 70.856379 14.766484 71.880636 C 16.126422 72.879072 18.553654 74.230403 22.039571 75.934629 C 25.542703 77.621641 28.624081 78.465147 31.300922 78.465147 C 39.047404 78.465147 42.920646 75.822735 42.920646 70.537913 C 42.920646 69.427584 42.645215 68.403326 42.085747 67.465141 C 41.534886 66.526956 40.553665 65.588771 39.150691 64.650586 C 37.756324 63.695186 36.508279 62.937752 35.432379 62.378284 C 34.365086 61.818816 32.609216 60.97531 30.156164 59.847766 C 27.720325 58.703008 25.912812 57.833681 24.733626 57.248391 C 19.853341 54.829767 16.074779 51.817246 13.397939 48.202221 C 10.729706 44.595802 9.39559 40.705347 9.39559 36.530853 C 9.39559 29.292195 12.063823 23.379047 17.408896 18.774193 C 22.753969 14.177946 28.847869 11.879823 35.690595 11.879823 Z M 130.705511 13.360262 L 130.705511 29.490161 L 102.947281 29.490161 L 102.947281 45.508166 L 129.534931 45.508166 L 129.534931 61.638065 L 102.947281 61.638065 L 102.947281 77.87125 L 130.705511 77.87125 L 130.705511 94.001149 L 84.570902 94.001149 L 84.570902 13.360262 Z M 130.705511 13.360262 " stroke="#333333" stroke-width="2.443935" stroke-opacity="1" stroke-miterlimit="4"/><g fill="#333333" fill-opacity="1"><g transform="translate(20.705585, 62.827199)"><g><path d="M 2 -7.421875 L 2 -4.65625 L 5.03125 -4.65625 L 5.03125 -3.75 L 2 -3.75 L 2 -0.890625 L 5.390625 -0.890625 L 5.390625 0 L 0.921875 0 L 0.921875 -8.328125 L 5.390625 -8.328125 L 5.390625 -7.421875 Z M 2 -7.421875 "/></g></g></g><g fill="#333333" fill-opacity="1"><g transform="translate(32.216309, 62.827199)"><g><path d="M 4.3125 -4.15625 L 6.859375 0 L 5.640625 0 L 3.640625 -3.25 L 1.75 0 L 0.546875 0 L 3.09375 -4.15625 L 0.53125 -8.3125 L 1.75 -8.3125 L 3.75 -5.0625 L 5.65625 -8.3125 L 6.875 -8.3125 Z M 4.3125 -4.15625 "/></g></g></g><g fill="#333333" fill-opacity="1"><g transform="translate(45.013651, 62.827199)"><g><path d="M 6.46875 -5.875 C 6.46875 -5.1875 6.234375 -4.613281 5.765625 -4.15625 C 5.296875 -3.695312 4.570312 -3.46875 3.59375 -3.46875 L 2 -3.46875 L 2 0 L 0.921875 0 L 0.921875 -8.3125 L 3.59375 -8.3125 C 4.53125 -8.3125 5.242188 -8.082031 5.734375 -7.625 C 6.222656 -7.175781 6.46875 -6.59375 6.46875 -5.875 Z M 3.59375 -4.359375 C 4.195312 -4.359375 4.640625 -4.488281 4.921875 -4.75 C 5.210938 -5.019531 5.359375 -5.394531 5.359375 -5.875 C 5.359375 -6.90625 4.769531 -7.421875 3.59375 -7.421875 L 2 -7.421875 L 2 -4.359375 Z M 3.59375 -4.359375 "/></g></g></g><g fill="#333333" fill-opacity="1"><g transform="translate(57.310644, 62.827199)"><g><path d="M 2 -7.421875 L 2 -4.65625 L 5.03125 -4.65625 L 5.03125 -3.75 L 2 -3.75 L 2 -0.890625 L 5.390625 -0.890625 L 5.390625 0 L 0.921875 0 L 0.921875 -8.328125 L 5.390625 -8.328125 L 5.390625 -7.421875 Z M 2 -7.421875 "/></g></g></g><g fill="#333333" fill-opacity="1"><g transform="translate(68.821367, 62.827199)"><g><path d="M 5.296875 0 L 3.3125 -3.390625 L 2 -3.390625 L 2 0 L 0.921875 0 L 0.921875 -8.3125 L 3.59375 -8.3125 C 4.226562 -8.3125 4.757812 -8.203125 5.1875 -7.984375 C 5.625 -7.773438 5.945312 -7.484375 6.15625 -7.109375 C 6.375 -6.742188 6.484375 -6.328125 6.484375 -5.859375 C 6.484375 -5.285156 6.316406 -4.78125 5.984375 -4.34375 C 5.660156 -3.914062 5.164062 -3.628906 4.5 -3.484375 L 6.59375 0 Z M 2 -4.265625 L 3.59375 -4.265625 C 4.1875 -4.265625 4.628906 -4.410156 4.921875 -4.703125 C 5.210938 -4.992188 5.359375 -5.378906 5.359375 -5.859375 C 5.359375 -6.359375 5.210938 -6.742188 4.921875 -7.015625 C 4.640625 -7.285156 4.195312 -7.421875 3.59375 -7.421875 L 2 -7.421875 Z M 2 -4.265625 "/></g></g></g><g fill="#333333" fill-opacity="1"><g transform="translate(81.463839, 62.827199)"><g><path d="M 6.03125 -8.3125 L 6.03125 -7.421875 L 3.765625 -7.421875 L 3.765625 0 L 2.6875 0 L 2.6875 -7.421875 L 0.40625 -7.421875 L 0.40625 -8.3125 Z M 6.03125 -8.3125 "/></g></g></g></svg>